<svg xmlns="http://www.w3.org/2000/svg" width="48" height="48" viewBox="0 0 48 48">
  <defs>
    <linearGradient id="logoGradient" x1="0" y1="0" x2="1" y2="1">
      <stop offset="0" stop-color="#7aa2ff" />
      <stop offset="1" stop-color="#b47aff" />
    </linearGradient>
    <mask id="logoBubble">
      <path d="M24 3 45 24 24 45 3 24Z" fill="#fff" />
      <path
        d="M17 17h14a3 3 0 0 1 3 3v7a3 3 0 0 1-3 3h-7l-5 4v-4h-2a3 3 0 0 1-3-3v-7a3 3 0 0 1 3-3Z"
        fill="#000"
      />
    </mask>
  </defs>
  <path d="M24 3 45 24 24 45 3 24Z" fill="url(#logoGradient)" mask="url(#logoBubble)" />
</svg>
